<!DOCTYPE svg PUBLIC "-//W3C//DTD SVG 1.1//EN" "http://www.w3.org/Graphics/SVG/1.1/DTD/svg11.dtd">
<!-- Uploaded to: SVG Repo, www.svgrepo.com, Transformed by: SVG Repo Mixer Tools -->
<svg fill="#f5b429" width="800px" height="800px" viewBox="0 0 24 24" xmlns="http://www.w3.org/2000/svg" stroke="#f5b429">
<g id="SVGRepo_bgCarrier" stroke-width="0"/>
<g id="SVGRepo_tracerCarrier" stroke-linecap="round" stroke-linejoin="round"/>
<g id="SVGRepo_iconCarrier">
<path d="M18,7a7.669,7.669,0,0,0-6,3.19A7.669,7.669,0,0,0,6,7C2.313,7,1,9.583,1,12c0,3.687,2.583,5,5,5a7.669,7.669,0,0,0,6-3.19A7.669,7.669,0,0,0,18,17c2.417,0,5-1.313,5-5C23,9.583,21.687,7,18,7ZM6,15a2.689,2.689,0,0,1-3-3A2.689,2.689,0,0,1,6,9c2.579,0,4.225,2.065,4.837,3C10.225,12.935,8.579,15,6,15Zm12,0c-2.579,0-4.225-2.065-4.837-3,.612-.935,2.258-3,4.837-3a2.689,2.689,0,0,1,3,3A2.689,2.689,0,0,1,18,15Z"/>
</g>
</svg>